# xmcd CD database file
#
# Track frame offsets:
#	150
#	18407
#	33511
#	50549
#	66073
#	83263
#	99279
#	128884
#	148847
#	169930
#
# Disc length: 2493 seconds
#
# Revision: 0
# Processed by: cddbd v1.5.2PL0 Copyright (c) Steve Scherf et al.
# Submitted via: CDex 1.51
#
DISCID=7d09bb0a
DTITLE=Krissy Matthews - No Age Limit
DYEAR=2007
DGENRE=Blues
TTITLE0=Expressing With Feelin'
TTITLE1=All They Did Was Blues
TTITLE2=Feeling For The Blues
TTITLE3=No Age Limit
TTITLE4=Why Can't I Have... What I Want?
TTITLE5=Think
TTITLE6=Sometimes
TTITLE7=I Have The Blues
TTITLE8=Young Boy
TTITLE9=The Soul Will Never Die
EXTD=YEAR: 2007
EXTT0=
EXTT1=
EXTT2=
EXTT3=
EXTT4=
EXTT5=
EXTT6=
EXTT7=
EXTT8=
EXTT9=
PLAYORDER=
